<mxfile host="app.diagrams.net" modified="2023-12-02T05:14:49.009Z" agent="Mozilla/5.0 (Windows NT 10.0; Win64; x64) AppleWebKit/537.36 (KHTML, like Gecko) Chrome/119.0.0.0 Safari/537.36" etag="WWwd2VELRNN6pAhsq9OX" version="22.1.5" type="device" pages="5">
  <diagram name="Add Customer" id="E49aSv4FZ0PPDMPK3oO2">
    <mxGraphModel dx="1237" dy="665" grid="1" gridSize="10" guides="1" tooltips="1" connect="1" arrows="1" fold="1" page="1" pageScale="1" pageWidth="1100" pageHeight="850" math="0" shadow="0">
      <root>
        <mxCell id="0" />
        <mxCell id="1" parent="0" />
        <mxCell id="7E0FvI4bVu15tkwmtCha-5" style="edgeStyle=orthogonalEdgeStyle;rounded=0;orthogonalLoop=1;jettySize=auto;html=1;entryX=0.5;entryY=0;entryDx=0;entryDy=0;" edge="1" parent="1" source="7E0FvI4bVu15tkwmtCha-1" target="7E0FvI4bVu15tkwmtCha-2">
          <mxGeometry relative="1" as="geometry">
            <Array as="points">
              <mxPoint x="95" y="20" />
              <mxPoint x="255" y="20" />
            </Array>
          </mxGeometry>
        </mxCell>
        <mxCell id="7E0FvI4bVu15tkwmtCha-8" value="0.Successful Login" style="edgeLabel;html=1;align=center;verticalAlign=middle;resizable=0;points=[];" vertex="1" connectable="0" parent="7E0FvI4bVu15tkwmtCha-5">
          <mxGeometry x="0.1391" y="-2" relative="1" as="geometry">
            <mxPoint as="offset" />
          </mxGeometry>
        </mxCell>
        <mxCell id="7E0FvI4bVu15tkwmtCha-1" value="Login to System" style="html=1;whiteSpace=wrap;" vertex="1" parent="1">
          <mxGeometry x="40" y="40" width="110" height="50" as="geometry" />
        </mxCell>
        <mxCell id="7E0FvI4bVu15tkwmtCha-6" style="edgeStyle=orthogonalEdgeStyle;rounded=0;orthogonalLoop=1;jettySize=auto;html=1;entryX=0.5;entryY=0;entryDx=0;entryDy=0;" edge="1" parent="1" source="7E0FvI4bVu15tkwmtCha-2" target="7E0FvI4bVu15tkwmtCha-3">
          <mxGeometry relative="1" as="geometry">
            <Array as="points">
              <mxPoint x="280" y="20" />
              <mxPoint x="415" y="20" />
            </Array>
          </mxGeometry>
        </mxCell>
        <mxCell id="7E0FvI4bVu15tkwmtCha-9" value="1.Display Customer Dashboard" style="edgeLabel;html=1;align=center;verticalAlign=middle;resizable=0;points=[];" vertex="1" connectable="0" parent="7E0FvI4bVu15tkwmtCha-6">
          <mxGeometry x="-0.1346" y="1" relative="1" as="geometry">
            <mxPoint x="14" as="offset" />
          </mxGeometry>
        </mxCell>
        <mxCell id="7E0FvI4bVu15tkwmtCha-2" value="Click Customer Section" style="html=1;whiteSpace=wrap;" vertex="1" parent="1">
          <mxGeometry x="200" y="40" width="110" height="50" as="geometry" />
        </mxCell>
        <mxCell id="7E0FvI4bVu15tkwmtCha-7" style="edgeStyle=orthogonalEdgeStyle;rounded=0;orthogonalLoop=1;jettySize=auto;html=1;entryX=0.5;entryY=0;entryDx=0;entryDy=0;" edge="1" parent="1" source="7E0FvI4bVu15tkwmtCha-3" target="7E0FvI4bVu15tkwmtCha-4">
          <mxGeometry relative="1" as="geometry">
            <Array as="points">
              <mxPoint x="440" y="20" />
              <mxPoint x="575" y="20" />
            </Array>
          </mxGeometry>
        </mxCell>
        <mxCell id="7E0FvI4bVu15tkwmtCha-10" value="2.Display Add Customer Board" style="edgeLabel;html=1;align=center;verticalAlign=middle;resizable=0;points=[];" vertex="1" connectable="0" parent="7E0FvI4bVu15tkwmtCha-7">
          <mxGeometry x="-0.4264" y="1" relative="1" as="geometry">
            <mxPoint x="50" as="offset" />
          </mxGeometry>
        </mxCell>
        <mxCell id="7E0FvI4bVu15tkwmtCha-3" value="Click Add Customer" style="html=1;whiteSpace=wrap;" vertex="1" parent="1">
          <mxGeometry x="360" y="40" width="110" height="50" as="geometry" />
        </mxCell>
        <mxCell id="7E0FvI4bVu15tkwmtCha-12" style="edgeStyle=orthogonalEdgeStyle;rounded=0;orthogonalLoop=1;jettySize=auto;html=1;entryX=0.5;entryY=0;entryDx=0;entryDy=0;" edge="1" parent="1" source="7E0FvI4bVu15tkwmtCha-4" target="7E0FvI4bVu15tkwmtCha-11">
          <mxGeometry relative="1" as="geometry">
            <Array as="points">
              <mxPoint x="575" y="110" />
              <mxPoint x="735" y="110" />
            </Array>
          </mxGeometry>
        </mxCell>
        <mxCell id="7E0FvI4bVu15tkwmtCha-13" value="3.Click add Customer Button" style="edgeLabel;html=1;align=center;verticalAlign=middle;resizable=0;points=[];" vertex="1" connectable="0" parent="7E0FvI4bVu15tkwmtCha-12">
          <mxGeometry x="-0.0357" y="2" relative="1" as="geometry">
            <mxPoint as="offset" />
          </mxGeometry>
        </mxCell>
        <mxCell id="7E0FvI4bVu15tkwmtCha-4" value="Add Customer Form" style="html=1;whiteSpace=wrap;" vertex="1" parent="1">
          <mxGeometry x="520" y="40" width="110" height="50" as="geometry" />
        </mxCell>
        <mxCell id="7E0FvI4bVu15tkwmtCha-17" style="edgeStyle=orthogonalEdgeStyle;rounded=0;orthogonalLoop=1;jettySize=auto;html=1;entryX=0.5;entryY=0;entryDx=0;entryDy=0;" edge="1" parent="1" source="7E0FvI4bVu15tkwmtCha-11" target="7E0FvI4bVu15tkwmtCha-14">
          <mxGeometry relative="1" as="geometry">
            <Array as="points">
              <mxPoint x="710" y="140" />
              <mxPoint x="535" y="140" />
            </Array>
          </mxGeometry>
        </mxCell>
        <mxCell id="7E0FvI4bVu15tkwmtCha-21" value="4.All Inouts Fill by data" style="edgeLabel;html=1;align=center;verticalAlign=middle;resizable=0;points=[];" vertex="1" connectable="0" parent="7E0FvI4bVu15tkwmtCha-17">
          <mxGeometry x="0.1852" y="4" relative="1" as="geometry">
            <mxPoint as="offset" />
          </mxGeometry>
        </mxCell>
        <mxCell id="7E0FvI4bVu15tkwmtCha-27" style="edgeStyle=orthogonalEdgeStyle;rounded=0;orthogonalLoop=1;jettySize=auto;html=1;entryX=1;entryY=0.5;entryDx=0;entryDy=0;" edge="1" parent="1" source="7E0FvI4bVu15tkwmtCha-11" target="7E0FvI4bVu15tkwmtCha-4">
          <mxGeometry relative="1" as="geometry">
            <Array as="points">
              <mxPoint x="700" y="240" />
              <mxPoint x="840" y="240" />
              <mxPoint x="840" y="65" />
            </Array>
          </mxGeometry>
        </mxCell>
        <mxCell id="7E0FvI4bVu15tkwmtCha-31" value="4.1.Error Message" style="edgeLabel;html=1;align=center;verticalAlign=middle;resizable=0;points=[];" vertex="1" connectable="0" parent="7E0FvI4bVu15tkwmtCha-27">
          <mxGeometry x="-0.6812" y="-2" relative="1" as="geometry">
            <mxPoint as="offset" />
          </mxGeometry>
        </mxCell>
        <mxCell id="7E0FvI4bVu15tkwmtCha-11" value="Check Inputs" style="html=1;whiteSpace=wrap;" vertex="1" parent="1">
          <mxGeometry x="680" y="160" width="110" height="50" as="geometry" />
        </mxCell>
        <mxCell id="7E0FvI4bVu15tkwmtCha-19" style="edgeStyle=orthogonalEdgeStyle;rounded=0;orthogonalLoop=1;jettySize=auto;html=1;entryX=0.5;entryY=0;entryDx=0;entryDy=0;" edge="1" parent="1" source="7E0FvI4bVu15tkwmtCha-14" target="7E0FvI4bVu15tkwmtCha-15">
          <mxGeometry relative="1" as="geometry">
            <Array as="points">
              <mxPoint x="510" y="140" />
              <mxPoint x="335" y="140" />
            </Array>
          </mxGeometry>
        </mxCell>
        <mxCell id="7E0FvI4bVu15tkwmtCha-22" value="5/All Inputs Vaild" style="edgeLabel;html=1;align=center;verticalAlign=middle;resizable=0;points=[];" vertex="1" connectable="0" parent="7E0FvI4bVu15tkwmtCha-19">
          <mxGeometry x="-0.0228" y="3" relative="1" as="geometry">
            <mxPoint as="offset" />
          </mxGeometry>
        </mxCell>
        <mxCell id="7E0FvI4bVu15tkwmtCha-28" style="edgeStyle=orthogonalEdgeStyle;rounded=0;orthogonalLoop=1;jettySize=auto;html=1;entryX=1;entryY=0.75;entryDx=0;entryDy=0;" edge="1" parent="1" source="7E0FvI4bVu15tkwmtCha-14" target="7E0FvI4bVu15tkwmtCha-4">
          <mxGeometry relative="1" as="geometry">
            <Array as="points">
              <mxPoint x="535" y="280" />
              <mxPoint x="880" y="280" />
              <mxPoint x="880" y="78" />
            </Array>
          </mxGeometry>
        </mxCell>
        <mxCell id="7E0FvI4bVu15tkwmtCha-32" value="5.1.Error Message" style="edgeLabel;html=1;align=center;verticalAlign=middle;resizable=0;points=[];" vertex="1" connectable="0" parent="7E0FvI4bVu15tkwmtCha-28">
          <mxGeometry x="-0.4087" y="-2" relative="1" as="geometry">
            <mxPoint as="offset" />
          </mxGeometry>
        </mxCell>
        <mxCell id="7E0FvI4bVu15tkwmtCha-14" value="System Validtion" style="html=1;whiteSpace=wrap;" vertex="1" parent="1">
          <mxGeometry x="480" y="160" width="110" height="50" as="geometry" />
        </mxCell>
        <mxCell id="7E0FvI4bVu15tkwmtCha-20" style="edgeStyle=orthogonalEdgeStyle;rounded=0;orthogonalLoop=1;jettySize=auto;html=1;entryX=0.5;entryY=0;entryDx=0;entryDy=0;" edge="1" parent="1" source="7E0FvI4bVu15tkwmtCha-15" target="7E0FvI4bVu15tkwmtCha-16">
          <mxGeometry relative="1" as="geometry">
            <Array as="points">
              <mxPoint x="300" y="140" />
              <mxPoint x="135" y="140" />
            </Array>
          </mxGeometry>
        </mxCell>
        <mxCell id="7E0FvI4bVu15tkwmtCha-23" value="6.Insert data Order" style="edgeLabel;html=1;align=center;verticalAlign=middle;resizable=0;points=[];" vertex="1" connectable="0" parent="7E0FvI4bVu15tkwmtCha-20">
          <mxGeometry x="0.2144" y="-4" relative="1" as="geometry">
            <mxPoint as="offset" />
          </mxGeometry>
        </mxCell>
        <mxCell id="7E0FvI4bVu15tkwmtCha-29" style="edgeStyle=orthogonalEdgeStyle;rounded=0;orthogonalLoop=1;jettySize=auto;html=1;entryX=1;entryY=0.25;entryDx=0;entryDy=0;" edge="1" parent="1" source="7E0FvI4bVu15tkwmtCha-15" target="7E0FvI4bVu15tkwmtCha-4">
          <mxGeometry relative="1" as="geometry">
            <Array as="points">
              <mxPoint x="360" y="320" />
              <mxPoint x="920" y="320" />
              <mxPoint x="920" y="53" />
            </Array>
          </mxGeometry>
        </mxCell>
        <mxCell id="7E0FvI4bVu15tkwmtCha-33" value="6.1.Error Message" style="edgeLabel;html=1;align=center;verticalAlign=middle;resizable=0;points=[];" vertex="1" connectable="0" parent="7E0FvI4bVu15tkwmtCha-29">
          <mxGeometry x="-0.3834" y="-5" relative="1" as="geometry">
            <mxPoint as="offset" />
          </mxGeometry>
        </mxCell>
        <mxCell id="7E0FvI4bVu15tkwmtCha-15" value="Insertion Function" style="html=1;whiteSpace=wrap;" vertex="1" parent="1">
          <mxGeometry x="280" y="160" width="110" height="50" as="geometry" />
        </mxCell>
        <mxCell id="7E0FvI4bVu15tkwmtCha-25" style="edgeStyle=orthogonalEdgeStyle;rounded=0;orthogonalLoop=1;jettySize=auto;html=1;entryX=0;entryY=0.5;entryDx=0;entryDy=0;" edge="1" parent="1" source="7E0FvI4bVu15tkwmtCha-16" target="7E0FvI4bVu15tkwmtCha-24">
          <mxGeometry relative="1" as="geometry">
            <Array as="points">
              <mxPoint x="60" y="185" />
              <mxPoint x="60" y="305" />
            </Array>
          </mxGeometry>
        </mxCell>
        <mxCell id="7E0FvI4bVu15tkwmtCha-26" value="7.Success Insert" style="edgeLabel;html=1;align=center;verticalAlign=middle;resizable=0;points=[];" vertex="1" connectable="0" parent="7E0FvI4bVu15tkwmtCha-25">
          <mxGeometry x="-0.258" relative="1" as="geometry">
            <mxPoint as="offset" />
          </mxGeometry>
        </mxCell>
        <mxCell id="7E0FvI4bVu15tkwmtCha-30" style="edgeStyle=orthogonalEdgeStyle;rounded=0;orthogonalLoop=1;jettySize=auto;html=1;entryX=1;entryY=0;entryDx=0;entryDy=0;" edge="1" parent="1" source="7E0FvI4bVu15tkwmtCha-16" target="7E0FvI4bVu15tkwmtCha-4">
          <mxGeometry relative="1" as="geometry">
            <Array as="points">
              <mxPoint x="135" y="260" />
              <mxPoint x="280" y="260" />
              <mxPoint x="280" y="360" />
              <mxPoint x="960" y="360" />
              <mxPoint x="960" y="40" />
            </Array>
          </mxGeometry>
        </mxCell>
        <mxCell id="7E0FvI4bVu15tkwmtCha-34" value="7.1.Error Message" style="edgeLabel;html=1;align=center;verticalAlign=middle;resizable=0;points=[];" vertex="1" connectable="0" parent="7E0FvI4bVu15tkwmtCha-30">
          <mxGeometry x="-0.2007" y="3" relative="1" as="geometry">
            <mxPoint as="offset" />
          </mxGeometry>
        </mxCell>
        <mxCell id="7E0FvI4bVu15tkwmtCha-16" value="DB Insertion Function" style="html=1;whiteSpace=wrap;" vertex="1" parent="1">
          <mxGeometry x="80" y="160" width="110" height="50" as="geometry" />
        </mxCell>
        <mxCell id="7E0FvI4bVu15tkwmtCha-24" value="Successful Message" style="html=1;whiteSpace=wrap;" vertex="1" parent="1">
          <mxGeometry x="80" y="280" width="110" height="50" as="geometry" />
        </mxCell>
      </root>
    </mxGraphModel>
  </diagram>
  <diagram name="Modify Customer" id="5guiXefkoyBnaO2qgScv">
    <mxGraphModel dx="1237" dy="665" grid="1" gridSize="10" guides="1" tooltips="1" connect="1" arrows="1" fold="1" page="1" pageScale="1" pageWidth="1100" pageHeight="850" math="0" shadow="0">
      <root>
        <mxCell id="h5iOLW2QtgKo5G2MZXvH-0" />
        <mxCell id="h5iOLW2QtgKo5G2MZXvH-1" parent="h5iOLW2QtgKo5G2MZXvH-0" />
        <mxCell id="h5iOLW2QtgKo5G2MZXvH-2" style="edgeStyle=orthogonalEdgeStyle;rounded=0;orthogonalLoop=1;jettySize=auto;html=1;entryX=0.5;entryY=0;entryDx=0;entryDy=0;" edge="1" parent="h5iOLW2QtgKo5G2MZXvH-1" source="h5iOLW2QtgKo5G2MZXvH-4" target="h5iOLW2QtgKo5G2MZXvH-7">
          <mxGeometry relative="1" as="geometry">
            <Array as="points">
              <mxPoint x="95" y="20" />
              <mxPoint x="255" y="20" />
            </Array>
          </mxGeometry>
        </mxCell>
        <mxCell id="h5iOLW2QtgKo5G2MZXvH-3" value="0.Successful Login" style="edgeLabel;html=1;align=center;verticalAlign=middle;resizable=0;points=[];" vertex="1" connectable="0" parent="h5iOLW2QtgKo5G2MZXvH-2">
          <mxGeometry x="0.1391" y="-2" relative="1" as="geometry">
            <mxPoint as="offset" />
          </mxGeometry>
        </mxCell>
        <mxCell id="h5iOLW2QtgKo5G2MZXvH-4" value="Login to System" style="html=1;whiteSpace=wrap;" vertex="1" parent="h5iOLW2QtgKo5G2MZXvH-1">
          <mxGeometry x="40" y="40" width="110" height="50" as="geometry" />
        </mxCell>
        <mxCell id="h5iOLW2QtgKo5G2MZXvH-5" style="edgeStyle=orthogonalEdgeStyle;rounded=0;orthogonalLoop=1;jettySize=auto;html=1;entryX=0.5;entryY=0;entryDx=0;entryDy=0;" edge="1" parent="h5iOLW2QtgKo5G2MZXvH-1" source="h5iOLW2QtgKo5G2MZXvH-7" target="h5iOLW2QtgKo5G2MZXvH-10">
          <mxGeometry relative="1" as="geometry">
            <Array as="points">
              <mxPoint x="280" y="20" />
              <mxPoint x="415" y="20" />
            </Array>
          </mxGeometry>
        </mxCell>
        <mxCell id="h5iOLW2QtgKo5G2MZXvH-6" value="1.Display Customer Dashboard" style="edgeLabel;html=1;align=center;verticalAlign=middle;resizable=0;points=[];" vertex="1" connectable="0" parent="h5iOLW2QtgKo5G2MZXvH-5">
          <mxGeometry x="-0.1346" y="1" relative="1" as="geometry">
            <mxPoint x="14" as="offset" />
          </mxGeometry>
        </mxCell>
        <mxCell id="h5iOLW2QtgKo5G2MZXvH-7" value="Click Customer Section" style="html=1;whiteSpace=wrap;" vertex="1" parent="h5iOLW2QtgKo5G2MZXvH-1">
          <mxGeometry x="200" y="40" width="110" height="50" as="geometry" />
        </mxCell>
        <mxCell id="h5iOLW2QtgKo5G2MZXvH-8" style="edgeStyle=orthogonalEdgeStyle;rounded=0;orthogonalLoop=1;jettySize=auto;html=1;entryX=0.5;entryY=0;entryDx=0;entryDy=0;" edge="1" parent="h5iOLW2QtgKo5G2MZXvH-1">
          <mxGeometry relative="1" as="geometry">
            <mxPoint x="439" y="40" as="sourcePoint" />
            <mxPoint x="574" y="40" as="targetPoint" />
            <Array as="points">
              <mxPoint x="439" y="20" />
              <mxPoint x="574" y="20" />
            </Array>
          </mxGeometry>
        </mxCell>
        <mxCell id="h5iOLW2QtgKo5G2MZXvH-9" value="2.Display Modify Customer Board" style="edgeLabel;html=1;align=center;verticalAlign=middle;resizable=0;points=[];" vertex="1" connectable="0" parent="h5iOLW2QtgKo5G2MZXvH-8">
          <mxGeometry x="-0.4264" y="1" relative="1" as="geometry">
            <mxPoint x="66" as="offset" />
          </mxGeometry>
        </mxCell>
        <mxCell id="h5iOLW2QtgKo5G2MZXvH-10" value="Click Modify Customer" style="html=1;whiteSpace=wrap;" vertex="1" parent="h5iOLW2QtgKo5G2MZXvH-1">
          <mxGeometry x="360" y="40" width="110" height="50" as="geometry" />
        </mxCell>
        <mxCell id="h5iOLW2QtgKo5G2MZXvH-11" style="edgeStyle=orthogonalEdgeStyle;rounded=0;orthogonalLoop=1;jettySize=auto;html=1;entryX=0.5;entryY=0;entryDx=0;entryDy=0;" edge="1" parent="h5iOLW2QtgKo5G2MZXvH-1" source="h5iOLW2QtgKo5G2MZXvH-13" target="h5iOLW2QtgKo5G2MZXvH-18">
          <mxGeometry relative="1" as="geometry">
            <Array as="points">
              <mxPoint x="575" y="110" />
              <mxPoint x="735" y="110" />
            </Array>
          </mxGeometry>
        </mxCell>
        <mxCell id="h5iOLW2QtgKo5G2MZXvH-12" value="3.Click Modify Customer Button" style="edgeLabel;html=1;align=center;verticalAlign=middle;resizable=0;points=[];" vertex="1" connectable="0" parent="h5iOLW2QtgKo5G2MZXvH-11">
          <mxGeometry x="-0.0357" y="2" relative="1" as="geometry">
            <mxPoint as="offset" />
          </mxGeometry>
        </mxCell>
        <mxCell id="h5iOLW2QtgKo5G2MZXvH-13" value="Modify Customer Form" style="html=1;whiteSpace=wrap;" vertex="1" parent="h5iOLW2QtgKo5G2MZXvH-1">
          <mxGeometry x="520" y="40" width="110" height="50" as="geometry" />
        </mxCell>
        <mxCell id="h5iOLW2QtgKo5G2MZXvH-14" style="edgeStyle=orthogonalEdgeStyle;rounded=0;orthogonalLoop=1;jettySize=auto;html=1;entryX=0.5;entryY=0;entryDx=0;entryDy=0;" edge="1" parent="h5iOLW2QtgKo5G2MZXvH-1" source="h5iOLW2QtgKo5G2MZXvH-18" target="h5iOLW2QtgKo5G2MZXvH-23">
          <mxGeometry relative="1" as="geometry">
            <Array as="points">
              <mxPoint x="710" y="140" />
              <mxPoint x="535" y="140" />
            </Array>
          </mxGeometry>
        </mxCell>
        <mxCell id="h5iOLW2QtgKo5G2MZXvH-15" value="4.All Inouts Fill by data" style="edgeLabel;html=1;align=center;verticalAlign=middle;resizable=0;points=[];" vertex="1" connectable="0" parent="h5iOLW2QtgKo5G2MZXvH-14">
          <mxGeometry x="0.1852" y="4" relative="1" as="geometry">
            <mxPoint as="offset" />
          </mxGeometry>
        </mxCell>
        <mxCell id="h5iOLW2QtgKo5G2MZXvH-16" style="edgeStyle=orthogonalEdgeStyle;rounded=0;orthogonalLoop=1;jettySize=auto;html=1;entryX=1;entryY=0.5;entryDx=0;entryDy=0;" edge="1" parent="h5iOLW2QtgKo5G2MZXvH-1" source="h5iOLW2QtgKo5G2MZXvH-18" target="h5iOLW2QtgKo5G2MZXvH-13">
          <mxGeometry relative="1" as="geometry">
            <Array as="points">
              <mxPoint x="700" y="240" />
              <mxPoint x="840" y="240" />
              <mxPoint x="840" y="65" />
            </Array>
          </mxGeometry>
        </mxCell>
        <mxCell id="h5iOLW2QtgKo5G2MZXvH-17" value="4.1.Error Message" style="edgeLabel;html=1;align=center;verticalAlign=middle;resizable=0;points=[];" vertex="1" connectable="0" parent="h5iOLW2QtgKo5G2MZXvH-16">
          <mxGeometry x="-0.6812" y="-2" relative="1" as="geometry">
            <mxPoint as="offset" />
          </mxGeometry>
        </mxCell>
        <mxCell id="h5iOLW2QtgKo5G2MZXvH-18" value="Check Inputs" style="html=1;whiteSpace=wrap;" vertex="1" parent="h5iOLW2QtgKo5G2MZXvH-1">
          <mxGeometry x="680" y="160" width="110" height="50" as="geometry" />
        </mxCell>
        <mxCell id="h5iOLW2QtgKo5G2MZXvH-19" style="edgeStyle=orthogonalEdgeStyle;rounded=0;orthogonalLoop=1;jettySize=auto;html=1;entryX=0.5;entryY=0;entryDx=0;entryDy=0;" edge="1" parent="h5iOLW2QtgKo5G2MZXvH-1" source="h5iOLW2QtgKo5G2MZXvH-23" target="h5iOLW2QtgKo5G2MZXvH-28">
          <mxGeometry relative="1" as="geometry">
            <Array as="points">
              <mxPoint x="510" y="140" />
              <mxPoint x="335" y="140" />
            </Array>
          </mxGeometry>
        </mxCell>
        <mxCell id="h5iOLW2QtgKo5G2MZXvH-20" value="5/All Inputs Vaild" style="edgeLabel;html=1;align=center;verticalAlign=middle;resizable=0;points=[];" vertex="1" connectable="0" parent="h5iOLW2QtgKo5G2MZXvH-19">
          <mxGeometry x="-0.0228" y="3" relative="1" as="geometry">
            <mxPoint as="offset" />
          </mxGeometry>
        </mxCell>
        <mxCell id="h5iOLW2QtgKo5G2MZXvH-21" style="edgeStyle=orthogonalEdgeStyle;rounded=0;orthogonalLoop=1;jettySize=auto;html=1;entryX=1;entryY=0.75;entryDx=0;entryDy=0;" edge="1" parent="h5iOLW2QtgKo5G2MZXvH-1" source="h5iOLW2QtgKo5G2MZXvH-23" target="h5iOLW2QtgKo5G2MZXvH-13">
          <mxGeometry relative="1" as="geometry">
            <Array as="points">
              <mxPoint x="535" y="280" />
              <mxPoint x="880" y="280" />
              <mxPoint x="880" y="78" />
            </Array>
          </mxGeometry>
        </mxCell>
        <mxCell id="h5iOLW2QtgKo5G2MZXvH-22" value="5.1.Error Message" style="edgeLabel;html=1;align=center;verticalAlign=middle;resizable=0;points=[];" vertex="1" connectable="0" parent="h5iOLW2QtgKo5G2MZXvH-21">
          <mxGeometry x="-0.4087" y="-2" relative="1" as="geometry">
            <mxPoint as="offset" />
          </mxGeometry>
        </mxCell>
        <mxCell id="h5iOLW2QtgKo5G2MZXvH-23" value="System Validtion" style="html=1;whiteSpace=wrap;" vertex="1" parent="h5iOLW2QtgKo5G2MZXvH-1">
          <mxGeometry x="480" y="160" width="110" height="50" as="geometry" />
        </mxCell>
        <mxCell id="h5iOLW2QtgKo5G2MZXvH-24" style="edgeStyle=orthogonalEdgeStyle;rounded=0;orthogonalLoop=1;jettySize=auto;html=1;entryX=0.5;entryY=0;entryDx=0;entryDy=0;" edge="1" parent="h5iOLW2QtgKo5G2MZXvH-1" source="h5iOLW2QtgKo5G2MZXvH-28" target="h5iOLW2QtgKo5G2MZXvH-33">
          <mxGeometry relative="1" as="geometry">
            <Array as="points">
              <mxPoint x="300" y="140" />
              <mxPoint x="135" y="140" />
            </Array>
          </mxGeometry>
        </mxCell>
        <mxCell id="h5iOLW2QtgKo5G2MZXvH-25" value="6.Modify data Order" style="edgeLabel;html=1;align=center;verticalAlign=middle;resizable=0;points=[];" vertex="1" connectable="0" parent="h5iOLW2QtgKo5G2MZXvH-24">
          <mxGeometry x="0.2144" y="-4" relative="1" as="geometry">
            <mxPoint as="offset" />
          </mxGeometry>
        </mxCell>
        <mxCell id="h5iOLW2QtgKo5G2MZXvH-26" style="edgeStyle=orthogonalEdgeStyle;rounded=0;orthogonalLoop=1;jettySize=auto;html=1;entryX=1;entryY=0.25;entryDx=0;entryDy=0;" edge="1" parent="h5iOLW2QtgKo5G2MZXvH-1" source="h5iOLW2QtgKo5G2MZXvH-28" target="h5iOLW2QtgKo5G2MZXvH-13">
          <mxGeometry relative="1" as="geometry">
            <Array as="points">
              <mxPoint x="360" y="320" />
              <mxPoint x="920" y="320" />
              <mxPoint x="920" y="53" />
            </Array>
          </mxGeometry>
        </mxCell>
        <mxCell id="h5iOLW2QtgKo5G2MZXvH-27" value="6.1.Error Message" style="edgeLabel;html=1;align=center;verticalAlign=middle;resizable=0;points=[];" vertex="1" connectable="0" parent="h5iOLW2QtgKo5G2MZXvH-26">
          <mxGeometry x="-0.3834" y="-5" relative="1" as="geometry">
            <mxPoint as="offset" />
          </mxGeometry>
        </mxCell>
        <mxCell id="h5iOLW2QtgKo5G2MZXvH-28" value="EditingFunction" style="html=1;whiteSpace=wrap;" vertex="1" parent="h5iOLW2QtgKo5G2MZXvH-1">
          <mxGeometry x="280" y="160" width="110" height="50" as="geometry" />
        </mxCell>
        <mxCell id="h5iOLW2QtgKo5G2MZXvH-29" style="edgeStyle=orthogonalEdgeStyle;rounded=0;orthogonalLoop=1;jettySize=auto;html=1;entryX=0;entryY=0.5;entryDx=0;entryDy=0;" edge="1" parent="h5iOLW2QtgKo5G2MZXvH-1" source="h5iOLW2QtgKo5G2MZXvH-33" target="h5iOLW2QtgKo5G2MZXvH-34">
          <mxGeometry relative="1" as="geometry">
            <Array as="points">
              <mxPoint x="60" y="185" />
              <mxPoint x="60" y="305" />
            </Array>
          </mxGeometry>
        </mxCell>
        <mxCell id="h5iOLW2QtgKo5G2MZXvH-30" value="7.Success Editing" style="edgeLabel;html=1;align=center;verticalAlign=middle;resizable=0;points=[];" vertex="1" connectable="0" parent="h5iOLW2QtgKo5G2MZXvH-29">
          <mxGeometry x="-0.258" relative="1" as="geometry">
            <mxPoint as="offset" />
          </mxGeometry>
        </mxCell>
        <mxCell id="h5iOLW2QtgKo5G2MZXvH-31" style="edgeStyle=orthogonalEdgeStyle;rounded=0;orthogonalLoop=1;jettySize=auto;html=1;entryX=1;entryY=0;entryDx=0;entryDy=0;" edge="1" parent="h5iOLW2QtgKo5G2MZXvH-1" source="h5iOLW2QtgKo5G2MZXvH-33" target="h5iOLW2QtgKo5G2MZXvH-13">
          <mxGeometry relative="1" as="geometry">
            <Array as="points">
              <mxPoint x="135" y="260" />
              <mxPoint x="280" y="260" />
              <mxPoint x="280" y="360" />
              <mxPoint x="960" y="360" />
              <mxPoint x="960" y="40" />
            </Array>
          </mxGeometry>
        </mxCell>
        <mxCell id="h5iOLW2QtgKo5G2MZXvH-32" value="7.1.Error Message" style="edgeLabel;html=1;align=center;verticalAlign=middle;resizable=0;points=[];" vertex="1" connectable="0" parent="h5iOLW2QtgKo5G2MZXvH-31">
          <mxGeometry x="-0.2007" y="3" relative="1" as="geometry">
            <mxPoint as="offset" />
          </mxGeometry>
        </mxCell>
        <mxCell id="h5iOLW2QtgKo5G2MZXvH-33" value="DB Editing Function" style="html=1;whiteSpace=wrap;" vertex="1" parent="h5iOLW2QtgKo5G2MZXvH-1">
          <mxGeometry x="80" y="160" width="110" height="50" as="geometry" />
        </mxCell>
        <mxCell id="h5iOLW2QtgKo5G2MZXvH-34" value="Successful Message" style="html=1;whiteSpace=wrap;" vertex="1" parent="h5iOLW2QtgKo5G2MZXvH-1">
          <mxGeometry x="80" y="280" width="110" height="50" as="geometry" />
        </mxCell>
      </root>
    </mxGraphModel>
  </diagram>
  <diagram name="Remove Customer" id="e7dYcDMtW2gt6zl8CEGi">
    <mxGraphModel dx="1060" dy="570" grid="1" gridSize="10" guides="1" tooltips="1" connect="1" arrows="1" fold="1" page="1" pageScale="1" pageWidth="1100" pageHeight="850" math="0" shadow="0">
      <root>
        <mxCell id="brg8Ag42K2iDHGAXMtVh-0" />
        <mxCell id="brg8Ag42K2iDHGAXMtVh-1" parent="brg8Ag42K2iDHGAXMtVh-0" />
        <mxCell id="brg8Ag42K2iDHGAXMtVh-2" style="edgeStyle=orthogonalEdgeStyle;rounded=0;orthogonalLoop=1;jettySize=auto;html=1;entryX=0.5;entryY=0;entryDx=0;entryDy=0;" edge="1" parent="brg8Ag42K2iDHGAXMtVh-1" source="brg8Ag42K2iDHGAXMtVh-4" target="brg8Ag42K2iDHGAXMtVh-7">
          <mxGeometry relative="1" as="geometry">
            <Array as="points">
              <mxPoint x="95" y="20" />
              <mxPoint x="255" y="20" />
            </Array>
          </mxGeometry>
        </mxCell>
        <mxCell id="brg8Ag42K2iDHGAXMtVh-3" value="0.Successful Login" style="edgeLabel;html=1;align=center;verticalAlign=middle;resizable=0;points=[];" vertex="1" connectable="0" parent="brg8Ag42K2iDHGAXMtVh-2">
          <mxGeometry x="0.1391" y="-2" relative="1" as="geometry">
            <mxPoint as="offset" />
          </mxGeometry>
        </mxCell>
        <mxCell id="brg8Ag42K2iDHGAXMtVh-4" value="Login to System" style="html=1;whiteSpace=wrap;" vertex="1" parent="brg8Ag42K2iDHGAXMtVh-1">
          <mxGeometry x="40" y="40" width="110" height="50" as="geometry" />
        </mxCell>
        <mxCell id="brg8Ag42K2iDHGAXMtVh-5" style="edgeStyle=orthogonalEdgeStyle;rounded=0;orthogonalLoop=1;jettySize=auto;html=1;entryX=0.5;entryY=0;entryDx=0;entryDy=0;" edge="1" parent="brg8Ag42K2iDHGAXMtVh-1" source="brg8Ag42K2iDHGAXMtVh-7" target="brg8Ag42K2iDHGAXMtVh-10">
          <mxGeometry relative="1" as="geometry">
            <Array as="points">
              <mxPoint x="280" y="20" />
              <mxPoint x="415" y="20" />
            </Array>
          </mxGeometry>
        </mxCell>
        <mxCell id="brg8Ag42K2iDHGAXMtVh-6" value="1.Display Customer Dashboard" style="edgeLabel;html=1;align=center;verticalAlign=middle;resizable=0;points=[];" vertex="1" connectable="0" parent="brg8Ag42K2iDHGAXMtVh-5">
          <mxGeometry x="-0.1346" y="1" relative="1" as="geometry">
            <mxPoint x="14" as="offset" />
          </mxGeometry>
        </mxCell>
        <mxCell id="brg8Ag42K2iDHGAXMtVh-7" value="Click Customer Section" style="html=1;whiteSpace=wrap;" vertex="1" parent="brg8Ag42K2iDHGAXMtVh-1">
          <mxGeometry x="200" y="40" width="110" height="50" as="geometry" />
        </mxCell>
        <mxCell id="brg8Ag42K2iDHGAXMtVh-8" style="edgeStyle=orthogonalEdgeStyle;rounded=0;orthogonalLoop=1;jettySize=auto;html=1;entryX=0.5;entryY=0;entryDx=0;entryDy=0;" edge="1" parent="brg8Ag42K2iDHGAXMtVh-1">
          <mxGeometry relative="1" as="geometry">
            <mxPoint x="439" y="40" as="sourcePoint" />
            <mxPoint x="574" y="40" as="targetPoint" />
            <Array as="points">
              <mxPoint x="439" y="20" />
              <mxPoint x="574" y="20" />
            </Array>
          </mxGeometry>
        </mxCell>
        <mxCell id="brg8Ag42K2iDHGAXMtVh-9" value="2.Display&amp;nbsp;Remove&amp;nbsp;Customer Board" style="edgeLabel;html=1;align=center;verticalAlign=middle;resizable=0;points=[];" vertex="1" connectable="0" parent="brg8Ag42K2iDHGAXMtVh-8">
          <mxGeometry x="-0.4264" y="1" relative="1" as="geometry">
            <mxPoint x="66" as="offset" />
          </mxGeometry>
        </mxCell>
        <mxCell id="brg8Ag42K2iDHGAXMtVh-10" value="Click Remove&amp;nbsp;Customer" style="html=1;whiteSpace=wrap;" vertex="1" parent="brg8Ag42K2iDHGAXMtVh-1">
          <mxGeometry x="360" y="40" width="110" height="50" as="geometry" />
        </mxCell>
        <mxCell id="vMaGbdXSEKDnoKM7rj6E-3" style="edgeStyle=orthogonalEdgeStyle;rounded=0;orthogonalLoop=1;jettySize=auto;html=1;entryX=0;entryY=0.75;entryDx=0;entryDy=0;" edge="1" parent="brg8Ag42K2iDHGAXMtVh-1" source="brg8Ag42K2iDHGAXMtVh-13" target="vMaGbdXSEKDnoKM7rj6E-2">
          <mxGeometry relative="1" as="geometry">
            <Array as="points">
              <mxPoint x="590" y="158" />
            </Array>
          </mxGeometry>
        </mxCell>
        <mxCell id="vMaGbdXSEKDnoKM7rj6E-4" value="3.Click Modify Customer Button" style="edgeLabel;html=1;align=center;verticalAlign=middle;resizable=0;points=[];" vertex="1" connectable="0" parent="vMaGbdXSEKDnoKM7rj6E-3">
          <mxGeometry x="-0.339" y="-2" relative="1" as="geometry">
            <mxPoint x="-38" as="offset" />
          </mxGeometry>
        </mxCell>
        <mxCell id="brg8Ag42K2iDHGAXMtVh-13" value="Remove&amp;nbsp;&amp;nbsp;Customer Form" style="html=1;whiteSpace=wrap;" vertex="1" parent="brg8Ag42K2iDHGAXMtVh-1">
          <mxGeometry x="520" y="40" width="110" height="50" as="geometry" />
        </mxCell>
        <mxCell id="brg8Ag42K2iDHGAXMtVh-14" style="edgeStyle=orthogonalEdgeStyle;rounded=0;orthogonalLoop=1;jettySize=auto;html=1;entryX=0.5;entryY=0;entryDx=0;entryDy=0;" edge="1" parent="brg8Ag42K2iDHGAXMtVh-1" source="brg8Ag42K2iDHGAXMtVh-18" target="brg8Ag42K2iDHGAXMtVh-23">
          <mxGeometry relative="1" as="geometry">
            <Array as="points">
              <mxPoint x="710" y="208" />
              <mxPoint x="535" y="208" />
            </Array>
          </mxGeometry>
        </mxCell>
        <mxCell id="brg8Ag42K2iDHGAXMtVh-15" value="5.All Inouts Fill by data" style="edgeLabel;html=1;align=center;verticalAlign=middle;resizable=0;points=[];" vertex="1" connectable="0" parent="brg8Ag42K2iDHGAXMtVh-14">
          <mxGeometry x="0.1852" y="4" relative="1" as="geometry">
            <mxPoint as="offset" />
          </mxGeometry>
        </mxCell>
        <mxCell id="brg8Ag42K2iDHGAXMtVh-16" style="edgeStyle=orthogonalEdgeStyle;rounded=0;orthogonalLoop=1;jettySize=auto;html=1;entryX=1;entryY=0.5;entryDx=0;entryDy=0;" edge="1" parent="brg8Ag42K2iDHGAXMtVh-1" source="brg8Ag42K2iDHGAXMtVh-18" target="brg8Ag42K2iDHGAXMtVh-13">
          <mxGeometry relative="1" as="geometry">
            <Array as="points">
              <mxPoint x="690" y="320" />
              <mxPoint x="840" y="320" />
              <mxPoint x="840" y="65" />
            </Array>
          </mxGeometry>
        </mxCell>
        <mxCell id="brg8Ag42K2iDHGAXMtVh-17" value="5.1.Error Message" style="edgeLabel;html=1;align=center;verticalAlign=middle;resizable=0;points=[];" vertex="1" connectable="0" parent="brg8Ag42K2iDHGAXMtVh-16">
          <mxGeometry x="-0.6812" y="-2" relative="1" as="geometry">
            <mxPoint as="offset" />
          </mxGeometry>
        </mxCell>
        <mxCell id="brg8Ag42K2iDHGAXMtVh-18" value="Check Inputs" style="html=1;whiteSpace=wrap;" vertex="1" parent="brg8Ag42K2iDHGAXMtVh-1">
          <mxGeometry x="680" y="228" width="110" height="50" as="geometry" />
        </mxCell>
        <mxCell id="brg8Ag42K2iDHGAXMtVh-19" style="edgeStyle=orthogonalEdgeStyle;rounded=0;orthogonalLoop=1;jettySize=auto;html=1;entryX=0.5;entryY=0;entryDx=0;entryDy=0;" edge="1" parent="brg8Ag42K2iDHGAXMtVh-1" source="brg8Ag42K2iDHGAXMtVh-23" target="brg8Ag42K2iDHGAXMtVh-28">
          <mxGeometry relative="1" as="geometry">
            <Array as="points">
              <mxPoint x="510" y="208" />
              <mxPoint x="335" y="208" />
            </Array>
          </mxGeometry>
        </mxCell>
        <mxCell id="brg8Ag42K2iDHGAXMtVh-20" value="6.All Inputs Vaild" style="edgeLabel;html=1;align=center;verticalAlign=middle;resizable=0;points=[];" vertex="1" connectable="0" parent="brg8Ag42K2iDHGAXMtVh-19">
          <mxGeometry x="-0.0228" y="3" relative="1" as="geometry">
            <mxPoint as="offset" />
          </mxGeometry>
        </mxCell>
        <mxCell id="brg8Ag42K2iDHGAXMtVh-21" style="edgeStyle=orthogonalEdgeStyle;rounded=0;orthogonalLoop=1;jettySize=auto;html=1;entryX=1;entryY=0.75;entryDx=0;entryDy=0;" edge="1" parent="brg8Ag42K2iDHGAXMtVh-1" source="brg8Ag42K2iDHGAXMtVh-23" target="brg8Ag42K2iDHGAXMtVh-13">
          <mxGeometry relative="1" as="geometry">
            <Array as="points">
              <mxPoint x="535" y="360" />
              <mxPoint x="880" y="360" />
              <mxPoint x="880" y="77" />
            </Array>
          </mxGeometry>
        </mxCell>
        <mxCell id="brg8Ag42K2iDHGAXMtVh-22" value="6.1.Error Message" style="edgeLabel;html=1;align=center;verticalAlign=middle;resizable=0;points=[];" vertex="1" connectable="0" parent="brg8Ag42K2iDHGAXMtVh-21">
          <mxGeometry x="-0.4087" y="-2" relative="1" as="geometry">
            <mxPoint as="offset" />
          </mxGeometry>
        </mxCell>
        <mxCell id="brg8Ag42K2iDHGAXMtVh-23" value="System Validtion" style="html=1;whiteSpace=wrap;" vertex="1" parent="brg8Ag42K2iDHGAXMtVh-1">
          <mxGeometry x="480" y="228" width="110" height="50" as="geometry" />
        </mxCell>
        <mxCell id="brg8Ag42K2iDHGAXMtVh-24" style="edgeStyle=orthogonalEdgeStyle;rounded=0;orthogonalLoop=1;jettySize=auto;html=1;entryX=0.5;entryY=0;entryDx=0;entryDy=0;" edge="1" parent="brg8Ag42K2iDHGAXMtVh-1" source="brg8Ag42K2iDHGAXMtVh-28" target="brg8Ag42K2iDHGAXMtVh-33">
          <mxGeometry relative="1" as="geometry">
            <Array as="points">
              <mxPoint x="300" y="208" />
              <mxPoint x="135" y="208" />
            </Array>
          </mxGeometry>
        </mxCell>
        <mxCell id="brg8Ag42K2iDHGAXMtVh-25" value="7.Remove data Order" style="edgeLabel;html=1;align=center;verticalAlign=middle;resizable=0;points=[];" vertex="1" connectable="0" parent="brg8Ag42K2iDHGAXMtVh-24">
          <mxGeometry x="0.2144" y="-4" relative="1" as="geometry">
            <mxPoint as="offset" />
          </mxGeometry>
        </mxCell>
        <mxCell id="brg8Ag42K2iDHGAXMtVh-26" style="edgeStyle=orthogonalEdgeStyle;rounded=0;orthogonalLoop=1;jettySize=auto;html=1;entryX=1;entryY=0.25;entryDx=0;entryDy=0;" edge="1" parent="brg8Ag42K2iDHGAXMtVh-1" source="brg8Ag42K2iDHGAXMtVh-28" target="brg8Ag42K2iDHGAXMtVh-13">
          <mxGeometry relative="1" as="geometry">
            <Array as="points">
              <mxPoint x="360" y="400" />
              <mxPoint x="920" y="400" />
              <mxPoint x="920" y="53" />
            </Array>
          </mxGeometry>
        </mxCell>
        <mxCell id="brg8Ag42K2iDHGAXMtVh-27" value="7.1.Error Message" style="edgeLabel;html=1;align=center;verticalAlign=middle;resizable=0;points=[];" vertex="1" connectable="0" parent="brg8Ag42K2iDHGAXMtVh-26">
          <mxGeometry x="-0.3834" y="-5" relative="1" as="geometry">
            <mxPoint as="offset" />
          </mxGeometry>
        </mxCell>
        <mxCell id="brg8Ag42K2iDHGAXMtVh-28" value="Remove Function" style="html=1;whiteSpace=wrap;" vertex="1" parent="brg8Ag42K2iDHGAXMtVh-1">
          <mxGeometry x="280" y="228" width="110" height="50" as="geometry" />
        </mxCell>
        <mxCell id="brg8Ag42K2iDHGAXMtVh-29" style="edgeStyle=orthogonalEdgeStyle;rounded=0;orthogonalLoop=1;jettySize=auto;html=1;entryX=0;entryY=0.5;entryDx=0;entryDy=0;" edge="1" parent="brg8Ag42K2iDHGAXMtVh-1" source="brg8Ag42K2iDHGAXMtVh-33" target="brg8Ag42K2iDHGAXMtVh-34">
          <mxGeometry relative="1" as="geometry">
            <Array as="points">
              <mxPoint x="60" y="253" />
              <mxPoint x="60" y="373" />
            </Array>
          </mxGeometry>
        </mxCell>
        <mxCell id="brg8Ag42K2iDHGAXMtVh-30" value="8.Success Removeing" style="edgeLabel;html=1;align=center;verticalAlign=middle;resizable=0;points=[];" vertex="1" connectable="0" parent="brg8Ag42K2iDHGAXMtVh-29">
          <mxGeometry x="-0.258" relative="1" as="geometry">
            <mxPoint as="offset" />
          </mxGeometry>
        </mxCell>
        <mxCell id="brg8Ag42K2iDHGAXMtVh-31" style="edgeStyle=orthogonalEdgeStyle;rounded=0;orthogonalLoop=1;jettySize=auto;html=1;entryX=1;entryY=0;entryDx=0;entryDy=0;" edge="1" parent="brg8Ag42K2iDHGAXMtVh-1" source="brg8Ag42K2iDHGAXMtVh-33" target="brg8Ag42K2iDHGAXMtVh-13">
          <mxGeometry relative="1" as="geometry">
            <Array as="points">
              <mxPoint x="135" y="320" />
              <mxPoint x="280" y="320" />
              <mxPoint x="280" y="440" />
              <mxPoint x="960" y="440" />
              <mxPoint x="960" y="40" />
            </Array>
          </mxGeometry>
        </mxCell>
        <mxCell id="brg8Ag42K2iDHGAXMtVh-32" value="8.1.Error Message" style="edgeLabel;html=1;align=center;verticalAlign=middle;resizable=0;points=[];" vertex="1" connectable="0" parent="brg8Ag42K2iDHGAXMtVh-31">
          <mxGeometry x="-0.2007" y="3" relative="1" as="geometry">
            <mxPoint as="offset" />
          </mxGeometry>
        </mxCell>
        <mxCell id="brg8Ag42K2iDHGAXMtVh-33" value="DB Remove Function" style="html=1;whiteSpace=wrap;" vertex="1" parent="brg8Ag42K2iDHGAXMtVh-1">
          <mxGeometry x="80" y="228" width="110" height="50" as="geometry" />
        </mxCell>
        <mxCell id="brg8Ag42K2iDHGAXMtVh-34" value="Successful Message" style="html=1;whiteSpace=wrap;" vertex="1" parent="brg8Ag42K2iDHGAXMtVh-1">
          <mxGeometry x="80" y="348" width="110" height="50" as="geometry" />
        </mxCell>
        <mxCell id="vMaGbdXSEKDnoKM7rj6E-5" style="edgeStyle=orthogonalEdgeStyle;rounded=0;orthogonalLoop=1;jettySize=auto;html=1;entryX=0.5;entryY=0;entryDx=0;entryDy=0;" edge="1" parent="brg8Ag42K2iDHGAXMtVh-1" source="vMaGbdXSEKDnoKM7rj6E-2" target="brg8Ag42K2iDHGAXMtVh-18">
          <mxGeometry relative="1" as="geometry" />
        </mxCell>
        <mxCell id="vMaGbdXSEKDnoKM7rj6E-6" value="4.OK" style="edgeLabel;html=1;align=center;verticalAlign=middle;resizable=0;points=[];" vertex="1" connectable="0" parent="vMaGbdXSEKDnoKM7rj6E-5">
          <mxGeometry x="-0.3259" y="3" relative="1" as="geometry">
            <mxPoint as="offset" />
          </mxGeometry>
        </mxCell>
        <mxCell id="vMaGbdXSEKDnoKM7rj6E-7" style="edgeStyle=orthogonalEdgeStyle;rounded=0;orthogonalLoop=1;jettySize=auto;html=1;entryX=1;entryY=1;entryDx=0;entryDy=0;" edge="1" parent="brg8Ag42K2iDHGAXMtVh-1" source="vMaGbdXSEKDnoKM7rj6E-2" target="brg8Ag42K2iDHGAXMtVh-13">
          <mxGeometry relative="1" as="geometry">
            <Array as="points">
              <mxPoint x="725" y="110" />
              <mxPoint x="630" y="110" />
            </Array>
          </mxGeometry>
        </mxCell>
        <mxCell id="vMaGbdXSEKDnoKM7rj6E-8" value="4.1.NO" style="edgeLabel;html=1;align=center;verticalAlign=middle;resizable=0;points=[];" vertex="1" connectable="0" parent="vMaGbdXSEKDnoKM7rj6E-7">
          <mxGeometry x="0.1425" relative="1" as="geometry">
            <mxPoint as="offset" />
          </mxGeometry>
        </mxCell>
        <mxCell id="vMaGbdXSEKDnoKM7rj6E-2" value="Confirm Message" style="html=1;whiteSpace=wrap;" vertex="1" parent="brg8Ag42K2iDHGAXMtVh-1">
          <mxGeometry x="670" y="120" width="110" height="50" as="geometry" />
        </mxCell>
      </root>
    </mxGraphModel>
  </diagram>
  <diagram name="Show Customer" id="-d8gvUf0zi2V_LdzHQMy">
    <mxGraphModel dx="742" dy="399" grid="1" gridSize="10" guides="1" tooltips="1" connect="1" arrows="1" fold="1" page="1" pageScale="1" pageWidth="1100" pageHeight="850" math="0" shadow="0">
      <root>
        <mxCell id="BlE5B2PD60zcB9LpClpL-0" />
        <mxCell id="BlE5B2PD60zcB9LpClpL-1" parent="BlE5B2PD60zcB9LpClpL-0" />
        <mxCell id="BlE5B2PD60zcB9LpClpL-2" style="edgeStyle=orthogonalEdgeStyle;rounded=0;orthogonalLoop=1;jettySize=auto;html=1;entryX=0.5;entryY=0;entryDx=0;entryDy=0;" edge="1" parent="BlE5B2PD60zcB9LpClpL-1" source="BlE5B2PD60zcB9LpClpL-4" target="BlE5B2PD60zcB9LpClpL-7">
          <mxGeometry relative="1" as="geometry">
            <Array as="points">
              <mxPoint x="95" y="20" />
              <mxPoint x="255" y="20" />
            </Array>
          </mxGeometry>
        </mxCell>
        <mxCell id="BlE5B2PD60zcB9LpClpL-3" value="0.Successful Login" style="edgeLabel;html=1;align=center;verticalAlign=middle;resizable=0;points=[];" vertex="1" connectable="0" parent="BlE5B2PD60zcB9LpClpL-2">
          <mxGeometry x="0.1391" y="-2" relative="1" as="geometry">
            <mxPoint as="offset" />
          </mxGeometry>
        </mxCell>
        <mxCell id="BlE5B2PD60zcB9LpClpL-4" value="Login to System" style="html=1;whiteSpace=wrap;" vertex="1" parent="BlE5B2PD60zcB9LpClpL-1">
          <mxGeometry x="40" y="40" width="110" height="50" as="geometry" />
        </mxCell>
        <mxCell id="BlE5B2PD60zcB9LpClpL-5" style="edgeStyle=orthogonalEdgeStyle;rounded=0;orthogonalLoop=1;jettySize=auto;html=1;entryX=0.5;entryY=0;entryDx=0;entryDy=0;" edge="1" parent="BlE5B2PD60zcB9LpClpL-1" source="BlE5B2PD60zcB9LpClpL-7" target="BlE5B2PD60zcB9LpClpL-10">
          <mxGeometry relative="1" as="geometry">
            <Array as="points">
              <mxPoint x="280" y="20" />
              <mxPoint x="415" y="20" />
            </Array>
          </mxGeometry>
        </mxCell>
        <mxCell id="BlE5B2PD60zcB9LpClpL-6" value="1.Display Customer Dashboard" style="edgeLabel;html=1;align=center;verticalAlign=middle;resizable=0;points=[];" vertex="1" connectable="0" parent="BlE5B2PD60zcB9LpClpL-5">
          <mxGeometry x="-0.1346" y="1" relative="1" as="geometry">
            <mxPoint x="14" as="offset" />
          </mxGeometry>
        </mxCell>
        <mxCell id="BlE5B2PD60zcB9LpClpL-7" value="Click Customer Section" style="html=1;whiteSpace=wrap;" vertex="1" parent="BlE5B2PD60zcB9LpClpL-1">
          <mxGeometry x="200" y="40" width="110" height="50" as="geometry" />
        </mxCell>
        <mxCell id="BlE5B2PD60zcB9LpClpL-8" style="edgeStyle=orthogonalEdgeStyle;rounded=0;orthogonalLoop=1;jettySize=auto;html=1;entryX=0.5;entryY=0;entryDx=0;entryDy=0;" edge="1" parent="BlE5B2PD60zcB9LpClpL-1" source="BlE5B2PD60zcB9LpClpL-10" target="BlE5B2PD60zcB9LpClpL-13">
          <mxGeometry relative="1" as="geometry">
            <Array as="points">
              <mxPoint x="440" y="20" />
              <mxPoint x="575" y="20" />
            </Array>
          </mxGeometry>
        </mxCell>
        <mxCell id="BlE5B2PD60zcB9LpClpL-9" value="2.Display Show Customer Board" style="edgeLabel;html=1;align=center;verticalAlign=middle;resizable=0;points=[];" vertex="1" connectable="0" parent="BlE5B2PD60zcB9LpClpL-8">
          <mxGeometry x="-0.4264" y="1" relative="1" as="geometry">
            <mxPoint x="50" as="offset" />
          </mxGeometry>
        </mxCell>
        <mxCell id="BlE5B2PD60zcB9LpClpL-10" value="Click Add Customer" style="html=1;whiteSpace=wrap;" vertex="1" parent="BlE5B2PD60zcB9LpClpL-1">
          <mxGeometry x="360" y="40" width="110" height="50" as="geometry" />
        </mxCell>
        <mxCell id="BlE5B2PD60zcB9LpClpL-11" style="edgeStyle=orthogonalEdgeStyle;rounded=0;orthogonalLoop=1;jettySize=auto;html=1;entryX=0.5;entryY=0;entryDx=0;entryDy=0;" edge="1" parent="BlE5B2PD60zcB9LpClpL-1">
          <mxGeometry relative="1" as="geometry">
            <mxPoint x="573.9655172413793" y="90" as="sourcePoint" />
            <mxPoint x="734" y="160" as="targetPoint" />
            <Array as="points">
              <mxPoint x="574" y="110" />
              <mxPoint x="734" y="110" />
            </Array>
          </mxGeometry>
        </mxCell>
        <mxCell id="BlE5B2PD60zcB9LpClpL-12" value="3.Click Show Customer Button" style="edgeLabel;html=1;align=center;verticalAlign=middle;resizable=0;points=[];" vertex="1" connectable="0" parent="BlE5B2PD60zcB9LpClpL-11">
          <mxGeometry x="-0.0357" y="2" relative="1" as="geometry">
            <mxPoint as="offset" />
          </mxGeometry>
        </mxCell>
        <mxCell id="BlE5B2PD60zcB9LpClpL-13" value="Show Customer Form" style="html=1;whiteSpace=wrap;" vertex="1" parent="BlE5B2PD60zcB9LpClpL-1">
          <mxGeometry x="520" y="40" width="110" height="50" as="geometry" />
        </mxCell>
        <mxCell id="BlE5B2PD60zcB9LpClpL-14" style="edgeStyle=orthogonalEdgeStyle;rounded=0;orthogonalLoop=1;jettySize=auto;html=1;entryX=0.5;entryY=0;entryDx=0;entryDy=0;" edge="1" parent="BlE5B2PD60zcB9LpClpL-1" source="BlE5B2PD60zcB9LpClpL-18" target="BlE5B2PD60zcB9LpClpL-23">
          <mxGeometry relative="1" as="geometry">
            <Array as="points">
              <mxPoint x="710" y="140" />
              <mxPoint x="535" y="140" />
            </Array>
          </mxGeometry>
        </mxCell>
        <mxCell id="BlE5B2PD60zcB9LpClpL-15" value="4.All Inouts Fill by data" style="edgeLabel;html=1;align=center;verticalAlign=middle;resizable=0;points=[];" vertex="1" connectable="0" parent="BlE5B2PD60zcB9LpClpL-14">
          <mxGeometry x="0.1852" y="4" relative="1" as="geometry">
            <mxPoint as="offset" />
          </mxGeometry>
        </mxCell>
        <mxCell id="BlE5B2PD60zcB9LpClpL-16" style="edgeStyle=orthogonalEdgeStyle;rounded=0;orthogonalLoop=1;jettySize=auto;html=1;entryX=1;entryY=0.5;entryDx=0;entryDy=0;" edge="1" parent="BlE5B2PD60zcB9LpClpL-1" source="BlE5B2PD60zcB9LpClpL-18" target="BlE5B2PD60zcB9LpClpL-13">
          <mxGeometry relative="1" as="geometry">
            <Array as="points">
              <mxPoint x="700" y="240" />
              <mxPoint x="840" y="240" />
              <mxPoint x="840" y="65" />
            </Array>
          </mxGeometry>
        </mxCell>
        <mxCell id="BlE5B2PD60zcB9LpClpL-17" value="4.1.Error Message" style="edgeLabel;html=1;align=center;verticalAlign=middle;resizable=0;points=[];" vertex="1" connectable="0" parent="BlE5B2PD60zcB9LpClpL-16">
          <mxGeometry x="-0.6812" y="-2" relative="1" as="geometry">
            <mxPoint as="offset" />
          </mxGeometry>
        </mxCell>
        <mxCell id="BlE5B2PD60zcB9LpClpL-18" value="Check Inputs" style="html=1;whiteSpace=wrap;" vertex="1" parent="BlE5B2PD60zcB9LpClpL-1">
          <mxGeometry x="680" y="160" width="110" height="50" as="geometry" />
        </mxCell>
        <mxCell id="BlE5B2PD60zcB9LpClpL-19" style="edgeStyle=orthogonalEdgeStyle;rounded=0;orthogonalLoop=1;jettySize=auto;html=1;entryX=0.5;entryY=0;entryDx=0;entryDy=0;" edge="1" parent="BlE5B2PD60zcB9LpClpL-1" source="BlE5B2PD60zcB9LpClpL-23" target="BlE5B2PD60zcB9LpClpL-28">
          <mxGeometry relative="1" as="geometry">
            <Array as="points">
              <mxPoint x="510" y="140" />
              <mxPoint x="335" y="140" />
            </Array>
          </mxGeometry>
        </mxCell>
        <mxCell id="BlE5B2PD60zcB9LpClpL-20" value="5/All Inputs Vaild" style="edgeLabel;html=1;align=center;verticalAlign=middle;resizable=0;points=[];" vertex="1" connectable="0" parent="BlE5B2PD60zcB9LpClpL-19">
          <mxGeometry x="-0.0228" y="3" relative="1" as="geometry">
            <mxPoint as="offset" />
          </mxGeometry>
        </mxCell>
        <mxCell id="BlE5B2PD60zcB9LpClpL-21" style="edgeStyle=orthogonalEdgeStyle;rounded=0;orthogonalLoop=1;jettySize=auto;html=1;entryX=1;entryY=0.75;entryDx=0;entryDy=0;" edge="1" parent="BlE5B2PD60zcB9LpClpL-1" source="BlE5B2PD60zcB9LpClpL-23" target="BlE5B2PD60zcB9LpClpL-13">
          <mxGeometry relative="1" as="geometry">
            <Array as="points">
              <mxPoint x="535" y="280" />
              <mxPoint x="880" y="280" />
              <mxPoint x="880" y="78" />
            </Array>
          </mxGeometry>
        </mxCell>
        <mxCell id="BlE5B2PD60zcB9LpClpL-22" value="5.1.Error Message" style="edgeLabel;html=1;align=center;verticalAlign=middle;resizable=0;points=[];" vertex="1" connectable="0" parent="BlE5B2PD60zcB9LpClpL-21">
          <mxGeometry x="-0.4087" y="-2" relative="1" as="geometry">
            <mxPoint as="offset" />
          </mxGeometry>
        </mxCell>
        <mxCell id="BlE5B2PD60zcB9LpClpL-23" value="System Validtion" style="html=1;whiteSpace=wrap;" vertex="1" parent="BlE5B2PD60zcB9LpClpL-1">
          <mxGeometry x="480" y="160" width="110" height="50" as="geometry" />
        </mxCell>
        <mxCell id="BlE5B2PD60zcB9LpClpL-24" style="edgeStyle=orthogonalEdgeStyle;rounded=0;orthogonalLoop=1;jettySize=auto;html=1;entryX=0.5;entryY=0;entryDx=0;entryDy=0;" edge="1" parent="BlE5B2PD60zcB9LpClpL-1" source="BlE5B2PD60zcB9LpClpL-28" target="BlE5B2PD60zcB9LpClpL-33">
          <mxGeometry relative="1" as="geometry">
            <Array as="points">
              <mxPoint x="300" y="140" />
              <mxPoint x="135" y="140" />
            </Array>
          </mxGeometry>
        </mxCell>
        <mxCell id="BlE5B2PD60zcB9LpClpL-25" value="6.Fetch data Order" style="edgeLabel;html=1;align=center;verticalAlign=middle;resizable=0;points=[];" vertex="1" connectable="0" parent="BlE5B2PD60zcB9LpClpL-24">
          <mxGeometry x="0.2144" y="-4" relative="1" as="geometry">
            <mxPoint as="offset" />
          </mxGeometry>
        </mxCell>
        <mxCell id="BlE5B2PD60zcB9LpClpL-26" style="edgeStyle=orthogonalEdgeStyle;rounded=0;orthogonalLoop=1;jettySize=auto;html=1;entryX=1;entryY=0.25;entryDx=0;entryDy=0;" edge="1" parent="BlE5B2PD60zcB9LpClpL-1" source="BlE5B2PD60zcB9LpClpL-28" target="BlE5B2PD60zcB9LpClpL-13">
          <mxGeometry relative="1" as="geometry">
            <Array as="points">
              <mxPoint x="360" y="320" />
              <mxPoint x="920" y="320" />
              <mxPoint x="920" y="53" />
            </Array>
          </mxGeometry>
        </mxCell>
        <mxCell id="BlE5B2PD60zcB9LpClpL-27" value="6.1.Error Message" style="edgeLabel;html=1;align=center;verticalAlign=middle;resizable=0;points=[];" vertex="1" connectable="0" parent="BlE5B2PD60zcB9LpClpL-26">
          <mxGeometry x="-0.3834" y="-5" relative="1" as="geometry">
            <mxPoint as="offset" />
          </mxGeometry>
        </mxCell>
        <mxCell id="BlE5B2PD60zcB9LpClpL-28" value="Fetch Function" style="html=1;whiteSpace=wrap;" vertex="1" parent="BlE5B2PD60zcB9LpClpL-1">
          <mxGeometry x="280" y="160" width="110" height="50" as="geometry" />
        </mxCell>
        <mxCell id="BlE5B2PD60zcB9LpClpL-29" style="edgeStyle=orthogonalEdgeStyle;rounded=0;orthogonalLoop=1;jettySize=auto;html=1;entryX=0;entryY=0.5;entryDx=0;entryDy=0;" edge="1" parent="BlE5B2PD60zcB9LpClpL-1" source="BlE5B2PD60zcB9LpClpL-33" target="BlE5B2PD60zcB9LpClpL-34">
          <mxGeometry relative="1" as="geometry">
            <Array as="points">
              <mxPoint x="60" y="185" />
              <mxPoint x="60" y="305" />
            </Array>
          </mxGeometry>
        </mxCell>
        <mxCell id="BlE5B2PD60zcB9LpClpL-30" value="7.Success Fetch" style="edgeLabel;html=1;align=center;verticalAlign=middle;resizable=0;points=[];" vertex="1" connectable="0" parent="BlE5B2PD60zcB9LpClpL-29">
          <mxGeometry x="-0.258" relative="1" as="geometry">
            <mxPoint as="offset" />
          </mxGeometry>
        </mxCell>
        <mxCell id="BlE5B2PD60zcB9LpClpL-31" style="edgeStyle=orthogonalEdgeStyle;rounded=0;orthogonalLoop=1;jettySize=auto;html=1;entryX=1;entryY=0;entryDx=0;entryDy=0;" edge="1" parent="BlE5B2PD60zcB9LpClpL-1" source="BlE5B2PD60zcB9LpClpL-33" target="BlE5B2PD60zcB9LpClpL-13">
          <mxGeometry relative="1" as="geometry">
            <Array as="points">
              <mxPoint x="135" y="260" />
              <mxPoint x="280" y="260" />
              <mxPoint x="280" y="360" />
              <mxPoint x="960" y="360" />
              <mxPoint x="960" y="40" />
            </Array>
          </mxGeometry>
        </mxCell>
        <mxCell id="BlE5B2PD60zcB9LpClpL-32" value="7.1.Error Message" style="edgeLabel;html=1;align=center;verticalAlign=middle;resizable=0;points=[];" vertex="1" connectable="0" parent="BlE5B2PD60zcB9LpClpL-31">
          <mxGeometry x="-0.2007" y="3" relative="1" as="geometry">
            <mxPoint as="offset" />
          </mxGeometry>
        </mxCell>
        <mxCell id="BlE5B2PD60zcB9LpClpL-33" value="DB Retrivel Function" style="html=1;whiteSpace=wrap;" vertex="1" parent="BlE5B2PD60zcB9LpClpL-1">
          <mxGeometry x="80" y="160" width="110" height="50" as="geometry" />
        </mxCell>
        <mxCell id="BlE5B2PD60zcB9LpClpL-34" value="Filling inputs by data" style="html=1;whiteSpace=wrap;" vertex="1" parent="BlE5B2PD60zcB9LpClpL-1">
          <mxGeometry x="80" y="280" width="110" height="50" as="geometry" />
        </mxCell>
      </root>
    </mxGraphModel>
  </diagram>
  <diagram name="Show Customers" id="8KJQUjkTHN3mJCijYtnz">
    <mxGraphModel dx="873" dy="469" grid="1" gridSize="10" guides="1" tooltips="1" connect="1" arrows="1" fold="1" page="1" pageScale="1" pageWidth="1100" pageHeight="850" math="0" shadow="0">
      <root>
        <mxCell id="pwDJPoL2Rhmxgp8TtVwf-0" />
        <mxCell id="pwDJPoL2Rhmxgp8TtVwf-1" parent="pwDJPoL2Rhmxgp8TtVwf-0" />
        <mxCell id="pwDJPoL2Rhmxgp8TtVwf-2" style="edgeStyle=orthogonalEdgeStyle;rounded=0;orthogonalLoop=1;jettySize=auto;html=1;entryX=0.5;entryY=0;entryDx=0;entryDy=0;" edge="1" parent="pwDJPoL2Rhmxgp8TtVwf-1" source="pwDJPoL2Rhmxgp8TtVwf-4" target="pwDJPoL2Rhmxgp8TtVwf-7">
          <mxGeometry relative="1" as="geometry">
            <Array as="points">
              <mxPoint x="95" y="20" />
              <mxPoint x="255" y="20" />
            </Array>
          </mxGeometry>
        </mxCell>
        <mxCell id="pwDJPoL2Rhmxgp8TtVwf-3" value="0.Successful Login" style="edgeLabel;html=1;align=center;verticalAlign=middle;resizable=0;points=[];" vertex="1" connectable="0" parent="pwDJPoL2Rhmxgp8TtVwf-2">
          <mxGeometry x="0.1391" y="-2" relative="1" as="geometry">
            <mxPoint as="offset" />
          </mxGeometry>
        </mxCell>
        <mxCell id="pwDJPoL2Rhmxgp8TtVwf-4" value="Login to System" style="html=1;whiteSpace=wrap;" vertex="1" parent="pwDJPoL2Rhmxgp8TtVwf-1">
          <mxGeometry x="40" y="40" width="110" height="50" as="geometry" />
        </mxCell>
        <mxCell id="pwDJPoL2Rhmxgp8TtVwf-5" style="edgeStyle=orthogonalEdgeStyle;rounded=0;orthogonalLoop=1;jettySize=auto;html=1;entryX=0.5;entryY=0;entryDx=0;entryDy=0;" edge="1" parent="pwDJPoL2Rhmxgp8TtVwf-1" source="pwDJPoL2Rhmxgp8TtVwf-7" target="pwDJPoL2Rhmxgp8TtVwf-10">
          <mxGeometry relative="1" as="geometry">
            <Array as="points">
              <mxPoint x="280" y="20" />
              <mxPoint x="415" y="20" />
            </Array>
          </mxGeometry>
        </mxCell>
        <mxCell id="pwDJPoL2Rhmxgp8TtVwf-6" value="1.Display Customer Dashboard" style="edgeLabel;html=1;align=center;verticalAlign=middle;resizable=0;points=[];" vertex="1" connectable="0" parent="pwDJPoL2Rhmxgp8TtVwf-5">
          <mxGeometry x="-0.1346" y="1" relative="1" as="geometry">
            <mxPoint x="14" as="offset" />
          </mxGeometry>
        </mxCell>
        <mxCell id="pwDJPoL2Rhmxgp8TtVwf-7" value="Click Customer Section" style="html=1;whiteSpace=wrap;" vertex="1" parent="pwDJPoL2Rhmxgp8TtVwf-1">
          <mxGeometry x="200" y="40" width="110" height="50" as="geometry" />
        </mxCell>
        <mxCell id="pwDJPoL2Rhmxgp8TtVwf-8" style="edgeStyle=orthogonalEdgeStyle;rounded=0;orthogonalLoop=1;jettySize=auto;html=1;entryX=0.5;entryY=0;entryDx=0;entryDy=0;" edge="1" parent="pwDJPoL2Rhmxgp8TtVwf-1" source="pwDJPoL2Rhmxgp8TtVwf-10" target="pwDJPoL2Rhmxgp8TtVwf-13">
          <mxGeometry relative="1" as="geometry">
            <Array as="points">
              <mxPoint x="440" y="20" />
              <mxPoint x="575" y="20" />
            </Array>
          </mxGeometry>
        </mxCell>
        <mxCell id="pwDJPoL2Rhmxgp8TtVwf-9" value="2.Display Show Customers Board" style="edgeLabel;html=1;align=center;verticalAlign=middle;resizable=0;points=[];" vertex="1" connectable="0" parent="pwDJPoL2Rhmxgp8TtVwf-8">
          <mxGeometry x="-0.4264" y="1" relative="1" as="geometry">
            <mxPoint x="50" as="offset" />
          </mxGeometry>
        </mxCell>
        <mxCell id="pwDJPoL2Rhmxgp8TtVwf-10" value="Click Add Customer" style="html=1;whiteSpace=wrap;" vertex="1" parent="pwDJPoL2Rhmxgp8TtVwf-1">
          <mxGeometry x="360" y="40" width="110" height="50" as="geometry" />
        </mxCell>
        <mxCell id="pwDJPoL2Rhmxgp8TtVwf-11" style="edgeStyle=orthogonalEdgeStyle;rounded=0;orthogonalLoop=1;jettySize=auto;html=1;entryX=0.5;entryY=0;entryDx=0;entryDy=0;" edge="1" parent="pwDJPoL2Rhmxgp8TtVwf-1">
          <mxGeometry relative="1" as="geometry">
            <mxPoint x="573.9655172413793" y="90" as="sourcePoint" />
            <mxPoint x="734" y="160" as="targetPoint" />
            <Array as="points">
              <mxPoint x="574" y="110" />
              <mxPoint x="734" y="110" />
            </Array>
          </mxGeometry>
        </mxCell>
        <mxCell id="pwDJPoL2Rhmxgp8TtVwf-12" value="3.Click Show Customers Button" style="edgeLabel;html=1;align=center;verticalAlign=middle;resizable=0;points=[];" vertex="1" connectable="0" parent="pwDJPoL2Rhmxgp8TtVwf-11">
          <mxGeometry x="-0.0357" y="2" relative="1" as="geometry">
            <mxPoint as="offset" />
          </mxGeometry>
        </mxCell>
        <mxCell id="pwDJPoL2Rhmxgp8TtVwf-13" value="Show Customers Form" style="html=1;whiteSpace=wrap;" vertex="1" parent="pwDJPoL2Rhmxgp8TtVwf-1">
          <mxGeometry x="520" y="40" width="110" height="50" as="geometry" />
        </mxCell>
        <mxCell id="pwDJPoL2Rhmxgp8TtVwf-14" style="edgeStyle=orthogonalEdgeStyle;rounded=0;orthogonalLoop=1;jettySize=auto;html=1;entryX=0.5;entryY=0;entryDx=0;entryDy=0;" edge="1" parent="pwDJPoL2Rhmxgp8TtVwf-1" source="pwDJPoL2Rhmxgp8TtVwf-18" target="pwDJPoL2Rhmxgp8TtVwf-23">
          <mxGeometry relative="1" as="geometry">
            <Array as="points">
              <mxPoint x="710" y="140" />
              <mxPoint x="535" y="140" />
            </Array>
          </mxGeometry>
        </mxCell>
        <mxCell id="pwDJPoL2Rhmxgp8TtVwf-15" value="4.Recall data" style="edgeLabel;html=1;align=center;verticalAlign=middle;resizable=0;points=[];" vertex="1" connectable="0" parent="pwDJPoL2Rhmxgp8TtVwf-14">
          <mxGeometry x="0.1852" y="4" relative="1" as="geometry">
            <mxPoint as="offset" />
          </mxGeometry>
        </mxCell>
        <mxCell id="pwDJPoL2Rhmxgp8TtVwf-18" value="Filling inputs by data" style="html=1;whiteSpace=wrap;" vertex="1" parent="pwDJPoL2Rhmxgp8TtVwf-1">
          <mxGeometry x="680" y="160" width="110" height="50" as="geometry" />
        </mxCell>
        <mxCell id="pwDJPoL2Rhmxgp8TtVwf-23" value="Recalling Columns" style="html=1;whiteSpace=wrap;" vertex="1" parent="pwDJPoL2Rhmxgp8TtVwf-1">
          <mxGeometry x="480" y="160" width="110" height="50" as="geometry" />
        </mxCell>
      </root>
    </mxGraphModel>
  </diagram>
</mxfile>
